<?xml version="1.0" encoding="UTF-8"?>
<svg xmlns="http://www.w3.org/2000/svg" viewBox="120 95 340 305">
  <defs>
    <linearGradient id="ms-grad" x1="0.1" y1="0" x2="0.9" y2="1">
      <stop offset="0%" stop-color="#86efac"/>
      <stop offset="35%" stop-color="#22c55e"/>
      <stop offset="70%" stop-color="#16a34a"/>
      <stop offset="100%" stop-color="#064e3b"/>
    </linearGradient>
    <linearGradient id="ms-shine" x1="0" y1="0" x2="0" y2="1">
      <stop offset="0%" stop-color="rgba(255,255,255,0.55)"/>
      <stop offset="25%" stop-color="rgba(255,255,255,0.10)"/>
      <stop offset="100%" stop-color="rgba(0,0,0,0)"/>
    </linearGradient>
    <linearGradient id="ms-shadow" x1="0" y1="0" x2="0" y2="1">
      <stop offset="0%" stop-color="rgba(0,0,0,0)"/>
      <stop offset="100%" stop-color="rgba(0,50,20,0.55)"/>
    </linearGradient>
    <linearGradient id="ms-scan" x1="0" y1="0" x2="1" y2="0">
      <stop offset="0%" stop-color="rgba(167,243,208,0)"/>
      <stop offset="45%" stop-color="rgba(167,243,208,0)"/>
      <stop offset="50%" stop-color="rgba(220,255,230,0.95)"/>
      <stop offset="55%" stop-color="rgba(167,243,208,0)"/>
      <stop offset="100%" stop-color="rgba(167,243,208,0)"/>
    </linearGradient>
    <clipPath id="ms-clip"><path d="M 201.0 123.0 C 203.5 123.0 211.0 123.2 215.0 124.0 C 219.0 124.8 213.5 118.7 225.0 128.0 C 236.5 137.3 273.0 170.8 284.0 180.0 C 295.0 189.2 289.2 182.5 291.0 183.0 C 292.8 183.5 293.0 183.7 295.0 183.0 C 297.0 182.3 292.3 188.0 303.0 179.0 C 313.7 170.0 346.8 138.3 359.0 129.0 C 371.2 119.7 371.2 123.8 376.0 123.0 C 380.8 122.2 384.2 123.0 388.0 124.0 C 391.8 125.0 395.7 126.5 399.0 129.0 C 402.3 131.5 405.3 134.5 408.0 139.0 C 410.7 143.5 409.5 126.0 415.0 156.0 C 420.5 186.0 436.7 289.2 441.0 319.0 C 445.3 348.8 442.3 329.8 441.0 335.0 C 439.7 340.2 435.2 346.8 433.0 350.0 C 430.8 353.2 431.2 352.3 428.0 354.0 C 424.8 355.7 419.2 359.0 414.0 360.0 C 408.8 361.0 401.3 360.7 397.0 360.0 C 392.7 359.3 390.8 358.0 388.0 356.0 C 385.2 354.0 382.2 351.0 380.0 348.0 C 377.8 345.0 376.2 341.2 375.0 338.0 C 373.8 334.8 375.7 346.8 373.0 329.0 C 370.3 311.2 361.8 250.3 359.0 231.0 C 356.2 211.7 356.8 216.3 356.0 213.0 C 355.2 209.7 362.0 205.2 354.0 211.0 C 346.0 216.8 317.5 241.2 308.0 248.0 C 298.5 254.8 300.2 251.3 297.0 252.0 C 293.8 252.7 292.5 252.8 289.0 252.0 C 285.5 251.2 285.3 254.5 276.0 247.0 C 266.7 239.5 240.7 211.7 233.0 207.0 C 225.3 202.3 232.8 198.8 230.0 219.0 C 227.2 239.2 219.2 307.0 216.0 328.0 C 212.8 349.0 213.3 340.5 211.0 345.0 C 208.7 349.5 205.5 352.5 202.0 355.0 C 198.5 357.5 194.8 359.2 190.0 360.0 C 185.2 360.8 178.7 361.2 173.0 360.0 C 167.3 358.8 160.0 355.3 156.0 353.0 C 152.0 350.7 150.8 348.5 149.0 346.0 C 147.2 343.5 145.8 342.3 145.0 338.0 C 144.2 333.7 140.0 349.3 144.0 320.0 C 148.0 290.7 164.2 190.8 169.0 162.0 C 173.8 133.2 171.2 151.5 173.0 147.0 C 174.8 142.5 177.5 138.2 180.0 135.0 C 182.5 131.8 184.7 129.8 188.0 128.0 C 191.3 126.2 197.8 124.8 200.0 124.0 C 202.2 123.2 198.5 123.0 201.0 123.0 Z"/></clipPath>
  </defs>
  <ellipse cx="293" cy="372" rx="145" ry="10" fill="rgba(0,0,0,0.4)" filter="blur(4px)"/>
  <path d="M 201.0 123.0 C 203.5 123.0 211.0 123.2 215.0 124.0 C 219.0 124.8 213.5 118.7 225.0 128.0 C 236.5 137.3 273.0 170.8 284.0 180.0 C 295.0 189.2 289.2 182.5 291.0 183.0 C 292.8 183.5 293.0 183.7 295.0 183.0 C 297.0 182.3 292.3 188.0 303.0 179.0 C 313.7 170.0 346.8 138.3 359.0 129.0 C 371.2 119.7 371.2 123.8 376.0 123.0 C 380.8 122.2 384.2 123.0 388.0 124.0 C 391.8 125.0 395.7 126.5 399.0 129.0 C 402.3 131.5 405.3 134.5 408.0 139.0 C 410.7 143.5 409.5 126.0 415.0 156.0 C 420.5 186.0 436.7 289.2 441.0 319.0 C 445.3 348.8 442.3 329.8 441.0 335.0 C 439.7 340.2 435.2 346.8 433.0 350.0 C 430.8 353.2 431.2 352.3 428.0 354.0 C 424.8 355.7 419.2 359.0 414.0 360.0 C 408.8 361.0 401.3 360.7 397.0 360.0 C 392.7 359.3 390.8 358.0 388.0 356.0 C 385.2 354.0 382.2 351.0 380.0 348.0 C 377.8 345.0 376.2 341.2 375.0 338.0 C 373.8 334.8 375.7 346.8 373.0 329.0 C 370.3 311.2 361.8 250.3 359.0 231.0 C 356.2 211.7 356.8 216.3 356.0 213.0 C 355.2 209.7 362.0 205.2 354.0 211.0 C 346.0 216.8 317.5 241.2 308.0 248.0 C 298.5 254.8 300.2 251.3 297.0 252.0 C 293.8 252.7 292.5 252.8 289.0 252.0 C 285.5 251.2 285.3 254.5 276.0 247.0 C 266.7 239.5 240.7 211.7 233.0 207.0 C 225.3 202.3 232.8 198.8 230.0 219.0 C 227.2 239.2 219.2 307.0 216.0 328.0 C 212.8 349.0 213.3 340.5 211.0 345.0 C 208.7 349.5 205.5 352.5 202.0 355.0 C 198.5 357.5 194.8 359.2 190.0 360.0 C 185.2 360.8 178.7 361.2 173.0 360.0 C 167.3 358.8 160.0 355.3 156.0 353.0 C 152.0 350.7 150.8 348.5 149.0 346.0 C 147.2 343.5 145.8 342.3 145.0 338.0 C 144.2 333.7 140.0 349.3 144.0 320.0 C 148.0 290.7 164.2 190.8 169.0 162.0 C 173.8 133.2 171.2 151.5 173.0 147.0 C 174.8 142.5 177.5 138.2 180.0 135.0 C 182.5 131.8 184.7 129.8 188.0 128.0 C 191.3 126.2 197.8 124.8 200.0 124.0 C 202.2 123.2 198.5 123.0 201.0 123.0 Z" fill="url(#ms-grad)" stroke="#86efac" stroke-width="2.5" stroke-linejoin="round" stroke-linecap="round"/>
  <g clip-path="url(#ms-clip)">
    <rect x="100" y="110" width="420" height="260" fill="url(#ms-shine)"/>
    <rect x="100" y="200" width="420" height="170" fill="url(#ms-shadow)"/>
  </g>
</svg>
